<svg id="Layer_1" data-name="Layer 1" xmlns="http://www.w3.org/2000/svg" xmlns:xlink="http://www.w3.org/1999/xlink" viewBox="0 0 184.18 180.24"><defs><style>.cls-1{fill:#67002d;}.cls-2{fill:#383838;}.cls-3{fill:#fff;}.cls-4{fill:url(#linear-gradient);}</style><linearGradient id="linear-gradient" x1="217.72" y1="99.96" x2="255.16" y2="99.96" gradientUnits="userSpaceOnUse"><stop offset="0" stop-color="#67002d"/><stop offset="0.52" stop-color="#bd0000"/><stop offset="1" stop-color="#67002d"/></linearGradient></defs><title>add insurance icon</title><circle class="cls-1" cx="141.51" cy="84.5" r="2.53"/><circle class="cls-1" cx="51.4" cy="4.49" r="2.53"/><path class="cls-2" d="M159.79,171.9v-5.61a41.61,41.61,0,0,1,34.29-40.91c-9.56-18.62-9-43.37,1.58-65.49l2.87-6A2.23,2.23,0,0,1,201,52.71L207.48,54a30.14,30.14,0,0,0,22.93-4.61l4.78-3.26a2.25,2.25,0,0,1,2.53,0l4.78,3.26A30.1,30.1,0,0,0,265.42,54l6.48-1.31a2.24,2.24,0,0,1,2.48,1.23l2.86,6c11.6,24.16,11,51.91-1.45,70.69-.77,1.17-1.93,2.83-3.47,4.76l.16.11,33,22.26a18.3,18.3,0,0,1,7.15,20.7l-1.72,5.29a5.64,5.64,0,0,1-5.39,3.92h-6.49a2.25,2.25,0,1,1,0-4.49h6.49a1.17,1.17,0,0,0,1.12-.81l1.71-5.29a13.79,13.79,0,0,0-5.38-15.6l-33.05-22.28a56.29,56.29,0,0,0-9.38-5.26l-.17-.07a55.14,55.14,0,0,0-22.08-4.59h-37a37.1,37.1,0,0,0-37.06,37.06v5.61a2.25,2.25,0,1,1-4.49,0Z" transform="translate(-141.82 -45.76)"/><path class="cls-3" d="M238.31,124.73a59.63,59.63,0,0,1,22.37,4.33A58,58,0,0,0,265,123.4c9.74-14.66,10.19-36.61,1.27-56.34A43.08,43.08,0,0,1,236.45,61a43.08,43.08,0,0,1-29.81,6.1c-8.92,19.73-8.47,41.68,1.28,56.34a2.23,2.23,0,0,1,.36,1.33Z" transform="translate(-141.82 -45.76)"/><path class="cls-3" d="M198.9,124.81c.81,0,1.62-.08,2.44-.08h2.14c-10.14-16.32-10.26-40.14-.17-61.16a2.25,2.25,0,0,1,2.48-1.23,38.2,38.2,0,0,0,15.36,0,38.43,38.43,0,0,0,14-5.92,2.25,2.25,0,0,1,2.53,0,38.57,38.57,0,0,0,29.4,5.92,2.24,2.24,0,0,1,2.47,1.23c10.33,21.51,10,46-.86,62.32-1.15,1.73-2.43,3.43-3.79,5.09,1.21.6,2.4,1.25,3.57,1.93,1.58-2,2.77-3.66,3.54-4.81,11.62-17.49,12.07-43.5,1.14-66.26l-2.11-4.38-4.76,1A34.54,34.54,0,0,1,240,53.12l-3.52-2.4-3.51,2.4a34.57,34.57,0,0,1-26.36,5.31l-4.76-1-2.11,4.38C189.56,83,189.3,107.5,198.9,124.81Z" transform="translate(-141.82 -45.76)"/><path class="cls-2" d="M198,189.87h62.89a2.25,2.25,0,1,0,0-4.49H198a2.25,2.25,0,0,0,0,4.49Z" transform="translate(-141.82 -45.76)"/><circle class="cls-2" cx="37.06" cy="138.5" r="14.6"/><circle class="cls-2" cx="37.06" cy="138.5" r="10.11"/><circle class="cls-2" cx="138.14" cy="138.5" r="14.6"/><circle class="cls-2" cx="138.14" cy="138.5" r="10.11"/><path class="cls-2" d="M278.83,153.93a2.24,2.24,0,0,0-2.24-2.24h-48a101.8,101.8,0,0,1-36.69-6.82,2.25,2.25,0,1,0-1.62,4.2,106.3,106.3,0,0,0,38.31,7.11h48A2.24,2.24,0,0,0,278.83,153.93Z" transform="translate(-141.82 -45.76)"/><path class="cls-2" d="M233.6,149.12a2.07,2.07,0,0,0,.69-.11,2.24,2.24,0,0,0,1.45-2.82l-4.18-13.1a2.25,2.25,0,1,0-4.28,1.37l4.18,13.1A2.26,2.26,0,0,0,233.6,149.12Z" transform="translate(-141.82 -45.76)"/><path class="cls-2" d="M296.8,160.67a2.25,2.25,0,0,0-2.25-2.25h-6.2a3.76,3.76,0,0,0-2.89,6.32,22.52,22.52,0,0,0,14.2,7l3.38.33h.22a2.25,2.25,0,0,0,.21-4.48l-3.38-.33A18,18,0,0,1,290,162.92h4.52A2.25,2.25,0,0,0,296.8,160.67Z" transform="translate(-141.82 -45.76)"/><path class="cls-2" d="M174.18,159.15a28.11,28.11,0,0,1,27.16-20.94,2.25,2.25,0,1,0,0-4.49A32.59,32.59,0,0,0,169.84,158a2.24,2.24,0,0,0,4.34,1.14Z" transform="translate(-141.82 -45.76)"/><circle class="cls-2" cx="28.45" cy="119.49" r="2.53"/><path class="cls-2" d="M233.87,158.42a2.25,2.25,0,0,0-2.25,2.25v13.6a8.87,8.87,0,0,0,8.87,8.86h6.9a2.25,2.25,0,0,0,0-4.49h-6.9a4.38,4.38,0,0,1-4.38-4.37v-13.6A2.24,2.24,0,0,0,233.87,158.42Z" transform="translate(-141.82 -45.76)"/><path class="cls-2" d="M185.64,166.39A19,19,0,0,1,197,178.12a7.45,7.45,0,0,0,7.1,5h7.39a2.25,2.25,0,0,0,0-4.49h-7.39a3,3,0,0,1-2.84-2,23.47,23.47,0,0,0-14-14.49,2.25,2.25,0,1,0-1.59,4.2Z" transform="translate(-141.82 -45.76)"/><path class="cls-2" d="M245.14,165.16a2.25,2.25,0,1,0,0-4.49h-4.49a2.25,2.25,0,1,0,0,4.49Z" transform="translate(-141.82 -45.76)"/><path class="cls-2" d="M204.71,165.16a2.25,2.25,0,1,0,0-4.49h-4.49a2.25,2.25,0,1,0,0,4.49Z" transform="translate(-141.82 -45.76)"/><path class="cls-2" d="M323.75,198.85H144.06a2.25,2.25,0,0,0,0,4.5H323.75a2.25,2.25,0,0,0,0-4.5Z" transform="translate(-141.82 -45.76)"/><path class="cls-2" d="M311.29,221.32H149.68a2.25,2.25,0,1,0,0,4.49H311.29a2.25,2.25,0,0,0,0-4.49Z" transform="translate(-141.82 -45.76)"/><path class="cls-2" d="M173.26,214.58a2.25,2.25,0,1,0,0-4.49H157.54a2.25,2.25,0,0,0,0,4.49Z" transform="translate(-141.82 -45.76)"/><path class="cls-2" d="M219.68,214.58a2.25,2.25,0,1,0,0-4.49H204a2.25,2.25,0,0,0,0,4.49Z" transform="translate(-141.82 -45.76)"/><path class="cls-2" d="M266.1,214.58a2.25,2.25,0,1,0,0-4.49H250.38a2.25,2.25,0,1,0,0,4.49Z" transform="translate(-141.82 -45.76)"/><path class="cls-2" d="M312.52,210.09H296.8a2.25,2.25,0,1,0,0,4.49h15.72a2.25,2.25,0,1,0,0-4.49Z" transform="translate(-141.82 -45.76)"/><circle class="cls-2" cx="176.01" cy="177.72" r="2.53"/><path class="cls-1" d="M284.77,123.23a2.24,2.24,0,0,0,1.21,2.94,2.16,2.16,0,0,0,.86.17,2.26,2.26,0,0,0,2.08-1.38,77.82,77.82,0,0,0,5.49-33.62,2.25,2.25,0,0,0-4.49.22A73.16,73.16,0,0,1,284.77,123.23Z" transform="translate(-141.82 -45.76)"/><path class="cls-1" d="M181,87.62l.27,0a2.24,2.24,0,0,0,2.22-2A88.47,88.47,0,0,1,191.62,58a2.25,2.25,0,0,0-4.05-2A92.85,92.85,0,0,0,179,85.12,2.24,2.24,0,0,0,181,87.62Z" transform="translate(-141.82 -45.76)"/><path class="cls-4" d="M254.25,83.59a2.24,2.24,0,0,0-3.14.47l-20,27-9.56-9.56a2.25,2.25,0,1,0-3.18,3.18l11.4,11.4a2.24,2.24,0,0,0,1.59.66h.17a2.21,2.21,0,0,0,1.64-.9l21.54-29.14A2.24,2.24,0,0,0,254.25,83.59Z" transform="translate(-141.82 -45.76)"/></svg>